<svg id="Capa_1" data-name="Capa 1" xmlns="http://www.w3.org/2000/svg" viewBox="0 0 512 512"><defs><style>.cls-1{fill:#2baebf;}.cls-2{fill:#ffbe2e;}</style></defs><title>coins</title><path class="cls-1" d="M209.45,150.64c0,38.26,76.11,58.29,151.28,58.29S512,188.9,512,150.64C512,74.12,209.45,74.12,209.45,150.64Z" transform="translate(0 0)"/><path class="cls-1" d="M506.39,207.09a11.67,11.67,0,0,0-11.42-.35c-31.34,16.44-79,25.5-134.24,25.5s-102.9-9.06-134.24-25.5a11.64,11.64,0,0,0-17,10.33v3.51c0,38.26,76.11,58.29,151.28,58.29S512,258.84,512,220.58v-3.51A11.68,11.68,0,0,0,506.39,207.09Z" transform="translate(0 0)"/><path class="cls-2" d="M69.82,383.78c0,38.26,76.1,58.28,151.27,58.28s151.27-20,151.27-58.28C372.36,307.26,69.82,307.26,69.82,383.78Z" transform="translate(0 0)"/><path class="cls-2" d="M366.75,440.23a11.67,11.67,0,0,0-11.42-.35c-31.34,16.43-79,25.49-134.24,25.49s-102.9-9.06-134.24-25.49a11.63,11.63,0,0,0-17,10.32v3.52C69.82,492,145.92,512,221.09,512s151.27-20,151.27-58.28V450.2A11.62,11.62,0,0,0,366.75,440.23Z" transform="translate(0 0)"/><path class="cls-2" d="M151.27,115.67A407.63,407.63,0,0,0,198,113a11.6,11.6,0,0,0,6.65-3.08c17.62-16.62,47.74-28.88,87.08-35.45a11.64,11.64,0,0,0,9-7.57,27.85,27.85,0,0,0,1.79-9.53C302.55-19.13,0-19.13,0,57.39,0,95.65,76.1,115.67,151.27,115.67Z" transform="translate(0 0)"/><path class="cls-2" d="M151.27,185.61c9.64,0,19-.33,28.14-.93A11.67,11.67,0,0,0,189.55,169a51.48,51.48,0,0,1-3.31-19,11.69,11.69,0,0,0-3.61-8.44,11.17,11.17,0,0,0-8.58-3.21c-7.61.37-15.21.62-22.78.62C96.05,139,48.38,129.92,17,113.49A11.63,11.63,0,0,0,0,123.81v3.52C0,165.59,76.1,185.61,151.27,185.61Z" transform="translate(0 0)"/><path class="cls-2" d="M151.27,255.55c9.64,0,19-.33,28.14-.93a11.67,11.67,0,0,0,10.14-15.7,52.77,52.77,0,0,1-3.37-19,11.65,11.65,0,0,0-3.61-8.44,11.38,11.38,0,0,0-8.58-3.21c-7.58.37-15.16.62-22.72.62-55.22,0-102.89-9.07-134.24-25.5A11.63,11.63,0,0,0,0,193.75v3.52C0,235.53,76.1,255.55,151.27,255.55Z" transform="translate(0 0)"/><path class="cls-1" d="M506.39,347a11.6,11.6,0,0,0-11.42-.35c-21.9,11.49-52.71,19.51-89.08,23.19-6.14.63-10.51,7.8-10.25,14A52.27,52.27,0,0,1,392.73,401a11.65,11.65,0,0,0,11,15.46,10.59,10.59,0,0,0,1.25-.07c67-7.24,107-28.15,107-55.94V357A11.68,11.68,0,0,0,506.39,347Z" transform="translate(0 0)"/><path class="cls-1" d="M221.09,302.18l7.72.14h.2a11.66,11.66,0,0,0,4.82-22.27l-2.49-1.12c-1.66-.73-3.33-1.45-4.87-2.26a11.63,11.63,0,0,0-17,10.33v3.52A11.63,11.63,0,0,0,221.09,302.18Z" transform="translate(0 0)"/><path class="cls-1" d="M506.39,277a11.67,11.67,0,0,0-11.42-.35c-31.34,16.44-79,25.5-134.24,25.5l-7.68-.15c-4.7-.4-10.31,3.74-11.5,9.12a11.64,11.64,0,0,0,6.53,13.15c12.6,5.74,22.9,12.55,30.59,20.26a11.62,11.62,0,0,0,8.23,3.4l.74,0C445,344.3,512,327.08,512,290.52V287A11.68,11.68,0,0,0,506.39,277Z" transform="translate(0 0)"/><path class="cls-2" d="M97.32,321.87a11.51,11.51,0,0,0,4.28-.82c20.5-8.11,45.5-13.7,74.32-16.6,6.14-.62,10.52-8.38,10.26-14.55A11.66,11.66,0,0,0,174,278.25c-7.58.37-15.16.62-22.72.62-55.23,0-102.9-9.06-134.24-25.5A11.63,11.63,0,0,0,0,263.69v3.52C0,293,35.77,313.37,95.7,321.76A11,11,0,0,0,97.32,321.87Z" transform="translate(0 0)"/></svg>