<?xml version="1.0"?>
<svg xmlns="http://www.w3.org/2000/svg" xmlns:xlink="http://www.w3.org/1999/xlink" version="1.1" id="Capa_1" x="0px" y="0px" viewBox="0 0 394.452 394.452" style="enable-background:new 0 0 394.452 394.452;" xml:space="preserve" width="512px" height="512px"><g><g>
	<g>
		<path d="M36.234,166.818c-3.298-2.941-8.355-2.651-11.295,0.646c-0.022,0.024-0.043,0.049-0.065,0.074    c-9.526,11.632-14.652,26.246-14.48,41.28v126.64c-0.127,7.035,0.817,14.049,2.8,20.8l14.48-10.48l118.56-88.56l13.92-10.4    L36.234,166.818z" data-original="#000000" class="active-path" data-old_color="#000000" fill="#9EA8B9"/>
	</g>
</g><g>
	<g>
		<path d="M360.394,362.338l-127.2-95.44l-13.92-10.4l-22.08,14.32l-22.48-14.56l-13.92,10.4l-127.12,94.96l-12.88,9.6    c11.022,15.591,29.346,24.344,48.4,23.12h256c18.634,0.59,36.443-7.691,48-22.32L360.394,362.338z" data-original="#000000" class="active-path" data-old_color="#000000" fill="#9EA8B9"/>
	</g>
</g><g>
	<g>
		<path d="M369.514,167.138c-2.666-2.954-7.097-3.499-10.4-1.28l-125.28,81.2l13.92,10.4l118.88,89.2l14.16,10.48    c2.199-7.041,3.279-14.384,3.2-21.76v-126.8C384.766,193.404,379.568,178.53,369.514,167.138z" data-original="#000000" class="active-path" data-old_color="#000000" fill="#9EA8B9"/>
	</g>
</g><g>
	<g>
		<path d="M193.194,88.978c-10.091,0.475-17.892,9.028-17.44,19.12c-0.492,9.973,7.194,18.457,17.167,18.949    c0.091,0.005,0.182,0.008,0.273,0.011c10.089-0.39,17.96-8.87,17.6-18.96C211.069,98.012,203.269,89.538,193.194,88.978z" data-original="#000000" class="active-path" data-old_color="#000000" fill="#9EA8B9"/>
	</g>
</g><g>
	<g>
		<path d="M330.474,0.018h-274.4c-8.383-0.409-15.527,6.02-16,14.4v135.28c-0.103,2.73,1.194,5.325,3.44,6.88l149.28,94.4    c2.651,1.723,6.069,1.723,8.72,0l141.2-90.32c2.368-1.48,3.793-4.088,3.76-6.88V14.418C346.001,6.039,338.857-0.39,330.474,0.018z     M242.954,133.778v0.48c-3.255,5.748-8.53,10.082-14.8,12.16c-1.194,0.171-2.406,0.171-3.6,0c-4.068,0.142-7.95-1.71-10.4-4.96    c-1.87-2.394-2.984-5.29-3.2-8.32v-0.4c-4.966,4.196-11.259,6.492-17.76,6.48c-17.055-0.006-30.875-13.836-30.869-30.891    c0.006-17.046,13.823-30.864,30.869-30.87c16.539,0.436,29.603,14.18,29.2,30.72v22.48c0,0,0,4.48,1.76,4.48h1.2    c3.022-1.376,5.479-3.748,6.96-6.72c3.316-6.253,4.995-13.243,4.88-20.32c0-24.433-19.807-44.24-44.24-44.24    c-24.433,0-44.24,19.807-44.24,44.24c0,24.433,19.807,44.24,44.24,44.24c0.027,0,0.053,0,0.08,0    c3.688,0.146,7.378-0.232,10.96-1.12c1.702-0.449,3.516-0.127,4.96,0.88c1.071,0.776,1.768,1.966,1.92,3.28    c0.444,1.418,0.269,2.957-0.48,4.24c-0.81,1.419-2.224,2.392-3.84,2.64c-4.417,1.132-8.96,1.697-13.52,1.68    c-30.817,2.612-57.917-20.254-60.529-51.071c-2.612-30.817,20.254-57.917,51.071-60.529c3.147-0.267,6.31-0.267,9.457,0l0.08,0.24    c30.928,0.094,55.924,25.241,55.83,56.169C248.918,117.443,246.867,126.013,242.954,133.778z" data-original="#000000" class="active-path" data-old_color="#000000" fill="#9EA8B9"/>
	</g>
</g></g> </svg>
