<?xml version="1.0"?>
<svg xmlns="http://www.w3.org/2000/svg" xmlns:xlink="http://www.w3.org/1999/xlink" xmlns:svgjs="http://svgjs.com/svgjs" version="1.1" width="512" height="512" x="0" y="0" viewBox="0 0 64 64" style="enable-background:new 0 0 512 512" xml:space="preserve" class=""><g><path xmlns="http://www.w3.org/2000/svg" d="m55 47v-4h3v-6h-18v6h3v4h-7v15h26v-15z" fill="#6c757d" data-original="#000000" style="" class=""/><path xmlns="http://www.w3.org/2000/svg" d="m38 35h13.909l-1.909-21 4-11-16 1-7.816-.868 1.711 3.421c.118.237.138.512.054.764l-1 3-1.896-.633.868-2.607-1.914-3.828-3.007.751-22-1 1.896 15.165 2.733-1.093c.22-.087.464-.095.688-.02l3 1-.633 1.897-2.652-.884-3.158 1.263-1.797 18.868 4.12.824-.393 1.96-3.483-.697 1.679 6.717-2 13 12-2 2 2 17-1.789v-14.211h4zm-11 7h-4l-8.395 8.395 2.395-1.597 3 2 3-2 3 2 3-2 3.555 2.37-1.109 1.664-2.446-1.63-3 2-3-2-3 2-3-2-2.445 1.63-1.109-1.664.434-.289-1.172-1.172 27-27-1.414-1.414-19.294 19.293v-6.586l25-25v6.059c0 6.365-2.529 12.47-7.029 16.971z" fill="#6c757d" data-original="#000000" style="" class=""/></g></svg>
