<svg id="Layer_1" data-name="Layer 1" xmlns="http://www.w3.org/2000/svg" viewBox="0 0 667.69531 147.9121"><defs><style>.cls-1{fill:#001946;}.cls-2{fill:#2baebf;}</style></defs><title>programnas A</title><path class="cls-1" d="M1223.86328,579.89258V566.33887l48.36524-25.25293-48.36524-25.10987V502.42236l64.77149,34.9541v7.70362Z" transform="translate(-620.93945 -464.94385)"/><path class="cls-1" d="M884.541,547.64941h-67.3252c2.35352,14.59571,11.92676,24.95313,30.13184,24.95313,10.04394,0,21.65722-3.92383,29.66015-9.57324l5.96387,10.8291c-8.16016,6.43457-21.9707,11.76953-35.93848,11.76953-31.54394,0-44.57031-22.12793-44.57031-44.09863,0-12.71192,3.92383-23.06983,11.77051-31.3877,7.84668-8.31738,18.04785-12.39795,30.44629-12.39795,11.76953,0,21.5,3.7666,29.0332,11.45655q11.29835,11.53491,11.29883,31.07324C885.01172,541.37207,884.85547,543.88281,884.541,547.64941Zm-67.3252-12.55468h53.044c-.78418-15.06592-11.61329-24.63916-25.58008-24.63916C830.24121,510.45557,819.56934,520.49951,817.21582,535.09473Z" transform="translate(-620.93945 -464.94385)"/><path class="cls-1" d="M903.21387,583.74512V499.78418h13.18261v12.55469c4.86524-9.88672,13.0254-14.752,24.3252-14.752a41.35883,41.35883,0,0,1,9.72949,1.25538l-1.25488,13.6538a29.14,29.14,0,0,0-8.63184-1.41259c-13.65332,0-23.38379,9.416-23.38379,27.46386v45.19776Z" transform="translate(-620.93945 -464.94385)"/><path class="cls-1" d="M1019.8125,578.72363c-5.96289,4.708-13.33887,7.06153-21.9707,7.06153-17.57715,0-26.52246-11.29883-26.52246-31.23047V511.86816H956.41016v-12.084h15.0664V470.12305h13.81055v29.66113h29.97461v12.084H985.28711V555.9668c0,11.2998,4.55078,16.94922,13.81055,16.94922,4.86425,0,9.88672-1.72559,15.22265-5.02149Z" transform="translate(-620.93945 -464.94385)"/><path class="cls-1" d="M1040.68359,576.21191c-6.43457-6.43457-9.57324-15.22265-9.57324-26.05175v-50.376h13.96778v49.90527c0,14.28125,8.0039,23.07032,21.65722,23.07032s21.65723-8.78907,21.65723-23.07032V499.78418h13.9668v50.376c0,21.97168-13.4961,35.625-35.624,35.625C1055.90625,585.78516,1047.11816,582.64648,1040.68359,576.21191Z" transform="translate(-620.93945 -464.94385)"/><path class="cls-1" d="M1179.56934,583.74512,1147.39746,544.04l-8.31738,7.5332v32.17188H1125.1123V464.94385h13.96778v69.523l38.60644-34.68262h19.30274l-39.54785,35.31055,40.80371,48.65039Z" transform="translate(-620.93945 -464.94385)"/><path class="cls-1" d="M687.42383,577.89453l-66.48438-32.81445V533.38184l66.48438-32.95655v13.41065l-52.93067,25.39551,52.93067,25.10937Z" transform="translate(-620.93945 -464.94385)"/><rect class="cls-2" x="92.80521" y="135.07211" width="15.86469" height="12.83999" rx="2.44383"/><path class="cls-2" d="M713.77984,514.416h14.40285v-.02229h24.63855c13.80968,0,21.4996,9.57287,21.4996,21.34286,0,12.08417-8.0034,22.12795-23.69672,22.12795H727.251a13.50679,13.50679,0,0,0-13.50641,13.60835l.00007,12.84975h15.59093V571.51747h21.13179c12.39764,0,21.81377-3.45242,28.40444-10.35726a34.9553,34.9553,0,0,0,10.04378-25.10946,35.76647,35.76647,0,0,0-9.57287-24.95272c-6.27719-7.06227-15.37915-10.51469-27.46332-10.51469H713.64226Z" transform="translate(-620.93945 -464.94385)"/></svg>