<?xml version="1.0"?>
<svg xmlns="http://www.w3.org/2000/svg" xmlns:xlink="http://www.w3.org/1999/xlink" xmlns:svgjs="http://svgjs.com/svgjs" version="1.1" width="512" height="512" x="0" y="0" viewBox="0 0 512 512" style="enable-background:new 0 0 512 512" xml:space="preserve" class=""><g>
<g xmlns="http://www.w3.org/2000/svg">
	<g>
		<path d="M426.669,464.982c-34.669,0-42.544-20-85.331-20c-42.588,0-50.588,20-85.331,20c-0.002,0-0.004,0-0.007,0    s-0.004,0-0.007,0c-34.743,0-42.743-20-85.331-20c-42.787,0-50.662,20-85.331,20c-36.206,0-41.331-20-85.331-20v30    c36.25,0,41.625,20,85.331,20c47.419,0,46.419-20,85.331-20c34.963,0,42.213,20,85.331,20c0.002,0,0.004,0,0.007,0    s0.004,0,0.007,0c43.118,0,50.368-20,85.331-20c38.912,0,37.912,20,85.331,20c43.706,0,49.081-20,85.331-20v-30    C468,444.982,462.875,464.982,426.669,464.982z" fill="#6c757d" data-original="#000000" style="" class=""/>
	</g>
</g>
<g xmlns="http://www.w3.org/2000/svg">
	<g>
		<path d="M442.322,38.95c-29.242-29.242-76.823-29.243-106.065,0L91.447,283.76v84.853l-43.825,43.825l21.213,21.213l43.825-43.825    h84.852l244.81-244.81C469.844,117.493,473.678,70.305,442.322,38.95z M421.109,123.802L185.087,359.825H142.66l257.236-257.236    l-21.213-21.213L121.447,338.612v-42.427L357.47,60.163c17.546-17.546,46.095-17.544,63.64,0    C438.131,77.185,439.131,105.78,421.109,123.802z" fill="#6c757d" data-original="#000000" style="" class=""/>
	</g>
</g>
<g xmlns="http://www.w3.org/2000/svg">
</g>
<g xmlns="http://www.w3.org/2000/svg">
</g>
<g xmlns="http://www.w3.org/2000/svg">
</g>
<g xmlns="http://www.w3.org/2000/svg">
</g>
<g xmlns="http://www.w3.org/2000/svg">
</g>
<g xmlns="http://www.w3.org/2000/svg">
</g>
<g xmlns="http://www.w3.org/2000/svg">
</g>
<g xmlns="http://www.w3.org/2000/svg">
</g>
<g xmlns="http://www.w3.org/2000/svg">
</g>
<g xmlns="http://www.w3.org/2000/svg">
</g>
<g xmlns="http://www.w3.org/2000/svg">
</g>
<g xmlns="http://www.w3.org/2000/svg">
</g>
<g xmlns="http://www.w3.org/2000/svg">
</g>
<g xmlns="http://www.w3.org/2000/svg">
</g>
<g xmlns="http://www.w3.org/2000/svg">
</g>
</g></svg>
