<?xml version="1.0" encoding="utf-8"?>
<!-- Generator: Adobe Illustrator 23.0.1, SVG Export Plug-In . SVG Version: 6.00 Build 0)  -->
<svg version="1.1" id="Layer_1" xmlns="http://www.w3.org/2000/svg" xmlns:xlink="http://www.w3.org/1999/xlink" x="0px" y="0px"
	 viewBox="0 0 1920 1080" style="enable-background:new 0 0 1920 1080;" xml:space="preserve">
<style type="text/css">
	.st0{fill:#001946;}
	.st1{fill:#2BAEBF;}
</style>
<g>
	<g>
		<path class="st0" d="M1444.9,579.9v-13.6l48.4-25.3l-48.4-25.1v-13.6l64.8,35v7.7L1444.9,579.9z"/>
	</g>
	<g>
		<path class="st0" d="M597.6,583.7v-84h13.2v12.6c4.9-9.9,13-14.8,24.3-14.8c3.3,0,6.4,0.5,9.7,1.3l-1.3,13.7c-3-0.9-6-1.4-8.6-1.4
			c-13.7,0-23.4,9.4-23.4,27.5v45.2H597.6z"/>
		<path class="st0" d="M660.9,510.6c8.3-8.6,18.8-12.9,31.5-12.9s23.1,4.2,31.4,12.9c8.3,8.5,12.6,18.8,12.6,31.1
			c0,12.4-4.1,22.9-12.4,31.4c-8.3,8.5-18.8,12.7-31.5,12.7s-23.2-4.2-31.5-12.7s-12.4-19-12.4-31.4
			C648.5,529.4,652.6,519.1,660.9,510.6z M713.6,519.9c-5.8-6.1-12.9-9.3-21.2-9.3s-15.4,3.1-21.2,9.3c-5.8,6.1-8.6,13.3-8.6,21.8
			c0,8.6,2.8,16,8.6,22.1c5.8,6.1,12.9,9.1,21.2,9.1s15.4-3,21.2-9.1c5.8-6.1,8.6-13.5,8.6-22.1C722.2,533.2,719.4,526,713.6,519.9z
			"/>
		<path class="st0" d="M821.6,499.8h14v75.3c0,13.7-4.1,24.3-12.2,32.3c-8,8-18.8,11.9-32.5,11.9s-25.9-3.9-36.7-11.8l6.7-11.1
			c9.1,6.7,19.1,10.2,30,10.2c9.3,0,16.8-2.7,22.3-8.2c5.6-5.3,8.5-12.2,8.5-20.9v-6.9c-7.5,8.8-17.4,13.2-29.8,13.2
			c-12.1,0-22.1-4.1-30.1-12.4s-12.1-18.5-12.1-30.8c0-12.1,4.1-22.3,12.4-30.6c8.3-8.3,18.4-12.4,30.4-12.4s21.8,4.4,29.2,13V499.8
			z M772,519.1c-5.5,5.8-8.3,13-8.3,21.7c0,8.8,2.8,16,8.3,21.8c5.7,5.8,12.7,8.6,21.2,8.6s15.5-2.8,21-8.6
			c5.7-5.8,8.5-13.2,8.5-21.8c0-8.6-2.8-15.9-8.5-21.7c-5.5-5.8-12.6-8.6-21-8.6C784.6,510.5,777.5,513.3,772,519.1z"/>
		<path class="st0" d="M859.4,583.7v-84h13.2v12.6c4.9-9.9,13-14.8,24.3-14.8c3.3,0,6.4,0.5,9.7,1.3l-1.3,13.7c-3-0.9-6-1.4-8.6-1.4
			c-13.7,0-23.4,9.4-23.4,27.5v45.2H859.4z"/>
		<path class="st0" d="M982.3,499.8h13.5v84h-13.5v-12.1c-7.7,9.4-17.6,14.1-30,14.1c-12.1,0-22.1-4.2-30.1-12.7
			c-8-8.6-11.9-19.1-11.9-31.9c0-12.6,3.9-22.9,11.9-31.1c8-8.3,18-12.4,30.1-12.4c12.2,0,22.3,4.9,30,14.4V499.8z M975.1,519.7
			c-5.5-6.1-12.6-9.1-21.3-9.1c-8.8,0-15.9,3-21.3,9.1c-5.3,6-8,13.3-8,22.1c0,8.6,2.7,16,8,22.1c5.5,6,12.6,8.9,21.3,8.9
			c8.8,0,15.9-3,21.3-8.9c5.5-6.1,8.3-13.5,8.3-22.3C983.4,533.1,980.6,525.7,975.1,519.7z"/>
		<path class="st0" d="M1140.2,507.5c6,6.6,8.9,15.4,8.9,26.5v49.7h-14V536c0-16.3-8-25.4-20.7-25.4c-13.7,0-22.9,10.5-22.9,25.7
			v47.4h-14v-47.4c0-16.2-7.8-25.7-20.9-25.7c-13.7,0-23.1,10.4-23.1,26.1v47.1h-14v-84h13.7v12.4c5-8.9,14.1-14.6,25.3-14.6
			c11.5,0,21.8,5.8,26.7,15.7c5.6-9.4,17.4-15.7,30.6-15.7C1126,497.6,1134.2,500.9,1140.2,507.5z"/>
		<path class="st1" d="M1171.9,583.7v-84h13.7v11.9c5.3-9.4,14.3-14.1,26.7-14.1c9.4,0,17.3,3,23.7,9.1c6.4,6.1,9.6,14.8,9.6,26.2
			v50.8h-14V537c0-16.9-8.9-26.4-22-26.4c-7.1,0-12.7,2.5-17.1,7.4c-4.4,4.9-6.6,11.3-6.6,19v46.8H1171.9z"/>
		<path class="st1" d="M1334.9,499.8h13.5v84h-13.5v-12.1c-7.7,9.4-17.6,14.1-30,14.1c-12.1,0-22.1-4.2-30.1-12.7
			c-8-8.6-11.9-19.1-11.9-31.9c0-12.6,3.9-22.9,11.9-31.1c8-8.3,18-12.4,30.1-12.4c12.2,0,22.3,4.9,30,14.4V499.8z M1327.7,519.7
			c-5.5-6.1-12.6-9.1-21.3-9.1c-8.8,0-15.9,3-21.3,9.1c-5.3,6-8,13.3-8,22.1c0,8.6,2.7,16,8,22.1c5.5,6,12.6,8.9,21.3,8.9
			c8.8,0,15.9-3,21.3-8.9c5.5-6.1,8.3-13.5,8.3-22.3C1336,533.1,1333.2,525.7,1327.7,519.7z"/>
		<path class="st1" d="M1364.4,567.1l10.7-7.4c4.9,8.9,12.7,13.5,20.4,13.5c9.3,0,15.4-5.6,15.4-12.1c0-4.6-2.7-8.3-8-11.3
			c-1.7-0.9-5-2.5-10.2-4.7s-8.6-3.8-10.5-4.9c-8.3-4.6-12.6-11.3-12.6-20.1c0-6.7,2.4-12.2,7.2-16.6c4.9-4.4,11.5-6.6,19.5-6.6
			c10.7,0,21.2,4.7,26.2,13.5l-9.4,8.3c-4.2-6.6-10.2-9.9-17.7-9.9c-8,0-12.4,4.9-12.4,10.7c0,4.6,2.4,8,6.9,10.2l9.6,4.4
			c4.9,2,8.6,3.8,11,5c9.6,5,14.3,12.1,14.3,21.2c0,7.1-2.8,13-8.3,17.9c-5.5,4.9-12.7,7.4-21.3,7.4
			C1382.5,585.6,1370.7,579.5,1364.4,567.1z"/>
	</g>
	<g>
		<path class="st0" d="M477.4,577.9l-66.5-32.8v-11.7l66.5-33v13.4l-52.9,25.4l52.9,25.1V577.9z"/>
	</g>
	<g>
		<path class="st1" d="M503.7,602.5v8c0,1.3,1.1,2.4,2.4,2.4h11c1.3,0,2.4-1.1,2.4-2.4v-8c0-1.3-1.1-2.4-2.4-2.4h-11
			C504.8,600,503.7,601.1,503.7,602.5z"/>
		<path class="st1" d="M503.8,514.4h14.4v0h24.6c13.8,0,21.5,9.6,21.5,21.3c0,12.1-8,22.1-23.7,22.1h-23.4
			c-7.5,0-13.6,6.1-13.5,13.6l0,12.8h15.6v-12.8h21.1c12.4,0,21.8-3.5,28.4-10.4c6.7-7.1,10-15.4,10-25.1c0-9.6-3.1-17.9-9.6-25
			c-6.3-7.1-15.4-10.5-27.5-10.5h-38.2L503.8,514.4z"/>
	</g>
</g>
</svg>
