<?xml version="1.0" encoding="utf-8"?>
<!-- Generator: Adobe Illustrator 23.0.1, SVG Export Plug-In . SVG Version: 6.00 Build 0)  -->
<svg version="1.1" id="Layer_1" xmlns="http://www.w3.org/2000/svg" xmlns:xlink="http://www.w3.org/1999/xlink" x="0px" y="0px"
	 viewBox="0 0 1920 1080" style="enable-background:new 0 0 1920 1080;" xml:space="preserve">
<style type="text/css">
	.st0{fill:#001946;}
	.st1{fill:#2BAEBF;}
</style>
<g>
	<g>
		<path class="st0" d="M1125.2,656.7v-40.3l143.8-75.1l-143.8-74.7v-40.3l192.6,103.9v22.9L1125.2,656.7z"/>
	</g>
	<g>
		<path class="st0" d="M764.2,650.8l-197.7-97.6v-34.8l197.7-98v39.9l-157.4,75.5l157.4,74.7V650.8z"/>
	</g>
	<g>
		<path class="st1" d="M842.4,694.4v23.6c0,4,3.3,7.3,7.3,7.3h32.6c4,0,7.3-3.3,7.3-7.3v-23.6c0-4-3.3-7.3-7.3-7.3h-32.6
			C845.7,687.2,842.4,690.4,842.4,694.4z"/>
		<path class="st1" d="M842.5,432.6h42.8v-0.1h73.3c41.1,0,63.9,28.5,63.9,63.5c0,35.9-23.8,65.8-70.5,65.8h-69.5
			c-22.3,0-40.3,18.2-40.2,40.5l0,38.2h46.4v-38.1h62.8c36.9,0,64.9-10.3,84.5-30.8c20.1-21,29.9-45.7,29.9-74.7
			c0-28.5-9.3-53.2-28.5-74.2c-18.7-21-45.7-31.3-81.7-31.3H842.1L842.5,432.6z"/>
	</g>
</g>
</svg>
