<svg id="Layer_1" data-name="Layer 1" xmlns="http://www.w3.org/2000/svg" viewBox="0 0 695.83 321.17"><defs><style>.cls-1,.cls-3{font-size:171.67px;}.cls-1,.cls-3,.cls-5{font-family:Axiforma-Book, Axiforma;}.cls-2,.cls-3,.cls-5{fill:#001946;}.cls-4{fill:#2baebf;}.cls-5{font-size:114.98px;}</style></defs><title>programnas A3</title><text class="cls-1" transform="translate(326.91 149.26)"><tspan xml:space="preserve">  </tspan><tspan class="cls-2" x="84.8" y="0">&gt;</tspan></text><text class="cls-3" transform="translate(190.39 149.26)">&lt;</text><rect class="cls-4" x="307.9" y="153.51" width="19.09" height="15.45" rx="2.94"/><path class="cls-4" d="M898.31,422.18h17.33v0h29.65c16.61,0,25.87,11.52,25.87,25.68,0,14.54-9.64,26.63-28.52,26.63H914.52a16.24,16.24,0,0,0-16.25,16.37V506.3H917V490.89h25.42c14.92,0,26.25-4.16,34.18-12.47a42,42,0,0,0,12.09-30.21,43,43,0,0,0-11.52-30c-7.56-8.5-18.51-12.66-33.05-12.66h-46Z" transform="translate(-590.37 -371.67)"/><text class="cls-5" transform="translate(0 285.3)">programnas</text></svg>