<?xml version="1.0"?>
<svg xmlns="http://www.w3.org/2000/svg" xmlns:xlink="http://www.w3.org/1999/xlink" xmlns:svgjs="http://svgjs.com/svgjs" version="1.1" width="512" height="512" x="0" y="0" viewBox="0 0 56 52" style="enable-background:new 0 0 512 512" xml:space="preserve" class=""><g><g xmlns="http://www.w3.org/2000/svg" id="Page-1" fill="none" fill-rule="evenodd"><g id="001---Book" fill="rgb(0,0,0)" fill-rule="nonzero"><path id="Shape" d="m34 44c-2.3738629.0064613-4.4184222 1.6754893-4.9 4h20.9c1.1045695 0 2-.8954305 2-2v-2.537c-.6074196.3527836-1.2975659.5380879-2 .537z" fill="#6c757d" data-original="#000000" style="" class=""/><path id="Shape" d="m34 42h16c1.1045695 0 2-.8954305 2-2v-36c0-1.1045695-.8954305-2-2-2h-7v20c.0001443.3845434-.2202266.7351047-.5668181.9016819-.3465916.1665772-.7579978.1196578-1.0581819-.1206819l-4.375-3.5-4.375 3.5c-.3001841.2403397-.7115903.2872591-1.0581819.1206819-.3465915-.1665772-.5669624-.5171385-.5668181-.9016819v-19c-1.2602735.94323296-2.0015777 2.42584145-2 4l-.0000025 37.11c.0190025-.019.0360025-.041.0560025-.061 1.3060618-1.3190803 3.0877407-2.0574825 4.944-2.049zm14-4h-5c-.5522847 0-1-.4477153-1-1s.4477153-1 1-1h5c.5522847 0 1 .4477153 1 1s-.4477153 1-1 1zm-2-32h2c.5522847 0 1 .44771525 1 1s-.4477153 1-1 1h-2c-.5522847 0-1-.44771525-1-1s.4477153-1 1-1zm0 5h2c.5522847 0 1 .4477153 1 1s-.4477153 1-1 1h-2c-.5522847 0-1-.4477153-1-1s.4477153-1 1-1zm0 5h2c.5522847 0 1 .4477153 1 1s-.4477153 1-1 1h-2c-.5522847 0-1-.4477153-1-1s.4477153-1 1-1zm0 5h2c.5522847 0 1 .4477153 1 1s-.4477153 1-1 1h-2c-.5522847 0-1-.4477153-1-1s.4477153-1 1-1zm-12 5h14c.5522847 0 1 .4477153 1 1s-.4477153 1-1 1h-14c-.5522847 0-1-.4477153-1-1s.4477153-1 1-1zm0 5h14c.5522847 0 1 .4477153 1 1s-.4477153 1-1 1h-14c-.5522847 0-1-.4477153-1-1s.4477153-1 1-1zm0 5h5c.5522847 0 1 .4477153 1 1s-.4477153 1-1 1h-5c-.5522847 0-1-.4477153-1-1s.4477153-1 1-1z" fill="#6c757d" data-original="#000000" style="" class=""/><path id="Shape" d="m37 17c.2271603-.0001065.4475878.0771313.625.219l3.375 2.7v-18.919c0-.55228475-.4477153-1-1-1h-6c-.5522847 0-1 .44771525-1 1v18.919l3.375-2.7c.1774122-.1418687.3978397-.2191065.625-.219z" fill="#6c757d" data-original="#000000" style="" class=""/><path id="Shape" d="m6 42h16c1.8815883-.0025347 3.6845061.7546908 5 2.1v-37.1c-.0033061-2.76005315-2.2399468-4.99669388-5-5h-16c-1.1045695 0-2 .8954305-2 2v36c0 1.1045695.8954305 2 2 2zm16-4h-5c-.5522847 0-1-.4477153-1-1s.4477153-1 1-1h5c.5522847 0 1 .4477153 1 1s-.4477153 1-1 1zm-14-32h14c.5522847 0 1 .44771525 1 1s-.4477153 1-1 1h-14c-.55228475 0-1-.44771525-1-1s.44771525-1 1-1zm0 5h14c.5522847 0 1 .4477153 1 1s-.4477153 1-1 1h-14c-.55228475 0-1-.4477153-1-1s.44771525-1 1-1zm0 5h14c.5522847 0 1 .4477153 1 1s-.4477153 1-1 1h-14c-.55228475 0-1-.4477153-1-1s.44771525-1 1-1zm15 6c0 .5522847-.4477153 1-1 1h-6c-.5522847 0-1-.4477153-1-1s.4477153-1 1-1h6c.5522847 0 1 .4477153 1 1zm-15-1h4c.5522847 0 1 .4477153 1 1s-.4477153 1-1 1h-4c-.55228475 0-1-.4477153-1-1s.44771525-1 1-1zm0 5h14c.5522847 0 1 .4477153 1 1s-.4477153 1-1 1h-14c-.55228475 0-1-.4477153-1-1s.44771525-1 1-1zm0 5h14c.5522847 0 1 .4477153 1 1s-.4477153 1-1 1h-14c-.55228475 0-1-.4477153-1-1s.44771525-1 1-1zm0 5h5c.5522847 0 1 .4477153 1 1s-.4477153 1-1 1h-5c-.55228475 0-1-.4477153-1-1s.44771525-1 1-1z" fill="#6c757d" data-original="#000000" style="" class=""/><path id="Shape" d="m6 48h20.9c-.478082-2.3266291-2.5247614-3.9973877-4.9-4h-16c-.70243407.0010879-1.39258043-.1842164-2-.537v2.537c0 1.1045695.8954305 2 2 2z" fill="#6c757d" data-original="#000000" style="" class=""/><path id="Shape" d="m54 8.184v37.816c0 2.209139-1.790861 4-4 4h-44c-2.209139 0-4-1.790861-4-4v-37.816c-1.19435086.42225455-1.99474861 1.54921457-2 2.816v38c0 1.6568542 1.34314575 3 3 3h50c1.6568542 0 3-1.3431458 3-3v-38c-.0052514-1.26678543-.8056491-2.39374545-2-2.816z" fill="#6c757d" data-original="#000000" style="" class=""/></g></g></g></svg>
