<?xml version="1.0"?>
<svg xmlns="http://www.w3.org/2000/svg" id="Capa_1" enable-background="new 0 0 551.13 551.13" height="512px" viewBox="0 0 551.13 551.13" width="512px"><g transform="matrix(3.06162e-16 1 -1 3.06162e-16 551.13 0)"><path d="m465.016 172.228h-51.668v34.446h34.446v310.011h-344.457v-310.011h34.446v-34.446h-51.669c-9.52 0-17.223 7.703-17.223 17.223v344.456c0 9.52 7.703 17.223 17.223 17.223h378.902c9.52 0 17.223-7.703 17.223-17.223v-344.456c0-9.52-7.703-17.223-17.223-17.223z" data-original="#000000" class="active-path" data-old_color="#000000" fill="#FFFFFF1C"/><path d="m258.342 65.931v244.08h34.446v-244.08l73.937 73.937 24.354-24.354-115.514-115.514-115.514 115.514 24.354 24.354z" data-original="#000000" class="active-path" data-old_color="#000000" fill="#FFFFFF1C"/></g> </svg>
