<?xml version="1.0"?>
<svg xmlns="http://www.w3.org/2000/svg" xmlns:xlink="http://www.w3.org/1999/xlink" xmlns:svgjs="http://svgjs.com/svgjs" version="1.1" width="512" height="512" x="0" y="0" viewBox="0 0 512 512" style="enable-background:new 0 0 512 512" xml:space="preserve" class=""><g><path xmlns="http://www.w3.org/2000/svg" d="m215.134 208.554c0-72.499 47.088-134.195 112.255-156.05-27.418-16.961-59.241-26.238-91.893-26.498-47.554-.373-107.371 17.863-141.141 51.364-33.813 33.546-52.436 78.269-52.436 125.93 0 11.784-2.916 23.519-8.434 33.935l-29.996 56.629c-4.87 9.159-4.629 19.972.645 28.926 5.276 8.958 14.621 14.415 24.999 14.597l12.739.002v45.334c0 27.108 22.034 49.162 49.117 49.162h31.924v13.257c0 22.529 18.313 40.857 40.823 40.857h155.291c22.51 0 40.823-18.328 40.823-40.857v-29.358c0-14.556 1.113-29.112 3.32-43.517-82.993-8.221-148.036-78.506-148.036-163.713z" fill="#6c757d" data-original="#000000" style="" class=""/><path xmlns="http://www.w3.org/2000/svg" d="m377.657 74.067c-74.196 0-134.343 60.226-134.343 134.519s60.147 134.519 134.343 134.519 134.343-60.226 134.343-134.519-60.148-134.519-134.343-134.519zm14.999 213.472c0 8.284-6.716 15-15 15s-15-6.716-15-15v-15.599c0-8.284 6.716-15 15-15s15 6.716 15 15zm4.767-66.331c-2.852 1.096-4.767 4.067-4.767 7.393 0 8.284-6.716 15-15 15s-15-6.716-15-15c0-15.654 9.646-29.879 24.005-35.396 10.379-3.988 16.827-14.155 16.046-25.299-.869-12.402-11.289-22.609-23.722-23.239-7.217-.372-14 2.233-19.088 7.322-5.857 5.858-15.355 5.858-21.213 0s-5.858-15.355 0-21.213c11.002-11.002 26.244-16.852 41.818-16.071 27.776 1.407 50.188 23.376 52.13 51.103 1.711 24.386-12.439 46.65-35.209 55.4z" fill="#6c757d" data-original="#000000" style="" class=""/></g></svg>
