<?xml version="1.0"?>
<svg xmlns="http://www.w3.org/2000/svg" xmlns:xlink="http://www.w3.org/1999/xlink" xmlns:svgjs="http://svgjs.com/svgjs" version="1.1" width="512" height="512" x="0" y="0" viewBox="0 0 512 512" style="enable-background:new 0 0 512 512" xml:space="preserve" class=""><g><path xmlns="http://www.w3.org/2000/svg" d="m256 512c-68.378906 0-132.667969-26.628906-181.019531-74.980469-48.351563-48.351562-74.980469-112.640625-74.980469-181.019531s26.628906-132.667969 74.980469-181.019531c48.351562-48.351563 112.640625-74.980469 181.019531-74.980469s132.667969 26.628906 181.019531 74.980469c48.351563 48.351562 74.980469 112.640625 74.980469 181.019531 0 50.53125-14.996094 99.675781-43.375 142.117188-6.136719 9.179687-18.558594 11.648437-27.742188 5.507812-9.179687-6.136719-11.648437-18.558594-5.507812-27.742188 23.960938-35.839843 36.625-77.292968 36.625-119.882812 0-119.101562-96.898438-216-216-216s-216 96.898438-216 216 96.898438 216 216 216c39.503906 0 78.144531-10.757812 111.738281-31.105469 9.445313-5.722656 21.742188-2.707031 27.46875 6.742188 5.722657 9.449219 2.703125 21.746093-6.746093 27.46875-39.84375 24.136719-85.648438 36.894531-132.460938 36.894531zm92.011719-124.644531c13.910156-10.164063 19.445312-27.292969 14.097656-43.640625l-17.054687-52.148438 44.695312-32.261718c13.832031-9.984376 19.574219-27.679688 14.289062-44.027344-5.355468-16.570313-19.988281-27.277344-37.285156-27.277344h-55.566406l-16.910156-52.03125c-5.359375-16.382812-19.992188-26.96875-37.277344-26.96875s-31.917969 10.585938-37.289062 27.007812l-16.898438 51.992188h-55.566406c-17.296875 0-31.929688 10.707031-37.285156 27.273438-5.285157 16.351562.457031 34.046874 14.289062 44.03125l44.695312 32.257812-17.054687 52.152344c-5.347656 16.347656.1875 33.476562 14.097656 43.636718 14 10.226563 32.125 10.277344 46.175781.132813l44.835938-32.371094 44.835938 32.371094c6.996093 5.050781 14.996093 7.574219 23 7.574219 8.070312 0 16.144531-2.570313 23.175781-7.703125zm-144.832031-159.355469c17.128906 0 32.109374-10.609375 37.289062-26.441406l16.535156-50.871094 16.539063 50.90625c5.167969 15.796875 20.148437 26.40625 37.277343 26.40625h53.953126l-43.683594 31.53125c-13.839844 9.988281-19.578125 27.578125-14.28125 43.769531l16.453125 50.316407-43.265625-31.234376c-6.734375-4.859374-14.6875-7.429687-22.996094-7.429687-8.3125 0-16.265625 2.566406-23 7.429687l-43.265625 31.238282 16.457031-50.316406c5.296875-16.195313-.445312-33.785157-14.28125-43.773438l-43.679687-31.53125zm163.648437.003906h.007813zm0 0" fill="#6c757d" data-original="#000000" style="" class=""/></g></svg>
