<?xml version="1.0"?>
<svg xmlns="http://www.w3.org/2000/svg" xmlns:xlink="http://www.w3.org/1999/xlink" version="1.1" id="Capa_1" x="0px" y="0px" viewBox="0 0 512 512" style="enable-background:new 0 0 512 512;" xml:space="preserve" width="512px" height="512px" class=""><g><g>
	<g>
		<path d="M265.321,370.823l-5.147,6.09c-1.45,1.729-2.52,3.867-3.062,6.123l-6.973,29.18l27.51-11.924    c2.169-0.953,4.044-2.345,5.553-4.146l5.101-6.035L265.321,370.823z" data-original="#000000" class="active-path" data-old_color="#000000" fill="#9AA4B6"/>
	</g>
</g><g>
	<g>
		<path d="M467,0H45C20.186,0,0,20.186,0,45v70c181.454,0,336.528,0,512,0V45C512,20.186,491.814,0,467,0z M75,90    c-8.284,0-15-6.716-15-15c0-8.286,6.716-15,15-15s15,6.714,15,15C90,83.284,83.284,90,75,90z M135,90c-8.284,0-15-6.716-15-15    c0-8.286,6.716-15,15-15s15,6.714,15,15C150,83.284,143.284,90,135,90z M195,90c-8.284,0-15-6.716-15-15c0-8.286,6.716-15,15-15    s15,6.714,15,15C210,83.284,203.284,90,195,90z M437,90h-60c-8.291,0-15-6.709-15-15s6.709-15,15-15h60c8.291,0,15,6.709,15,15    S445.291,90,437,90z" data-original="#000000" class="active-path" data-old_color="#000000" fill="#9AA4B6"/>
	</g>
</g><g>
	<g>
		<polygon points="367.595,249.797 284.68,347.916 307.665,367.2 390.584,269.087   " data-original="#000000" class="active-path" data-old_color="#000000" fill="#9AA4B6"/>
	</g>
</g><g>
	<g>
		<g>
			<path d="M258.592,332.301c-1.287,1.522-2.503,2.962-3.59,4.247C256.013,335.352,257.207,333.94,258.592,332.301z" data-original="#000000" class="active-path" data-old_color="#000000" fill="#9AA4B6"/>
			<path d="M261.506,328.853c-0.087,0.103-0.177,0.209-0.263,0.311C261.33,329.061,261.418,328.957,261.506,328.853z" data-original="#000000" class="active-path" data-old_color="#000000" fill="#9AA4B6"/>
			<path d="M254.081,337.637c-0.229,0.271-0.45,0.532-0.662,0.784C253.627,338.174,253.85,337.911,254.081,337.637z" data-original="#000000" class="active-path" data-old_color="#000000" fill="#9AA4B6"/>
			<path d="M260.089,330.529c-0.521,0.617-1.022,1.21-1.497,1.771C259.082,331.721,259.582,331.129,260.089,330.529z" data-original="#000000" class="active-path" data-old_color="#000000" fill="#9AA4B6"/>
			<path d="M261.243,329.164c-0.388,0.459-0.772,0.914-1.154,1.365C260.462,330.088,260.845,329.635,261.243,329.164z" data-original="#000000" class="active-path" data-old_color="#000000" fill="#9AA4B6"/>
			<path d="M255.002,336.548c-0.326,0.386-0.631,0.747-0.921,1.089C254.377,337.288,254.683,336.926,255.002,336.548z" data-original="#000000" class="active-path" data-old_color="#000000" fill="#9AA4B6"/>
			<path d="M250.361,342.04C250.185,342.247,250.193,342.238,250.361,342.04L250.361,342.04z" data-original="#000000" class="active-path" data-old_color="#000000" fill="#9AA4B6"/>
			<path d="M250.509,341.864c-0.058,0.069-0.108,0.128-0.148,0.176C250.401,341.992,250.45,341.934,250.509,341.864z" data-original="#000000" class="active-path" data-old_color="#000000" fill="#9AA4B6"/>
			<path d="M250.763,341.564c-0.098,0.117-0.184,0.217-0.254,0.3C250.581,341.779,250.664,341.68,250.763,341.564z" data-original="#000000" class="active-path" data-old_color="#000000" fill="#9AA4B6"/>
			<path d="M0,145v322c0,24.814,20.186,45,45,45h422c24.814,0,45-20.186,45-45V145C336.572,145,181.469,145,0,145z M75,212h150     c8.291,0,15,6.709,15,15s-6.709,15-15,15H75c-8.291,0-15-6.709-15-15S66.709,212,75,212z M165,422H75c-8.291,0-15-6.709-15-15     c0-8.291,6.709-15,15-15h90c8.291,0,15,6.709,15,15C180,415.291,173.291,422,165,422z M165,332H75c-8.291,0-15-6.709-15-15     c0-8.291,6.709-15,15-15h90c8.291,0,15,6.709,15,15C180,325.291,173.291,332,165,332z M442.606,253.997     c-51.511,60.956-83.633,98.967-136.465,161.484c-4.438,5.273-10.151,9.551-16.538,12.319c0,0,0,0-0.015,0.015l-55.049,23.862     c-5.394,2.305-11.367,1.273-15.601-2.285c-4.351-3.647-6.27-9.448-4.951-14.971l13.945-58.359     c1.611-6.753,4.819-13.125,9.272-18.457c29.022-34.338,38.612-45.684,39.083-46.242c-0.353,0.418-7.897,9.344-14.781,17.49     c15.227-18.016,48.163-56.986,112.194-132.747c16.187-19.301,44.713-21.167,63.354-5.493     C456.159,206.62,458.58,234.996,442.606,253.997z" data-original="#000000" class="active-path" data-old_color="#000000" fill="#9AA4B6"/>
			<path d="M252.466,339.549c-0.278,0.329-0.536,0.634-0.768,0.909C251.923,340.192,252.184,339.883,252.466,339.549z" data-original="#000000" class="active-path" data-old_color="#000000" fill="#9AA4B6"/>
			<path d="M253.419,338.421c-0.351,0.415-0.665,0.787-0.953,1.128C252.76,339.2,253.079,338.824,253.419,338.421z" data-original="#000000" class="active-path" data-old_color="#000000" fill="#9AA4B6"/>
			<path d="M251.177,341.074c-0.156,0.184-0.294,0.348-0.414,0.49C250.88,341.425,251.018,341.263,251.177,341.074z" data-original="#000000" class="active-path" data-old_color="#000000" fill="#9AA4B6"/>
			<path d="M251.697,340.458c-0.197,0.232-0.366,0.433-0.521,0.616C251.333,340.889,251.507,340.683,251.697,340.458z" data-original="#000000" class="active-path" data-old_color="#000000" fill="#9AA4B6"/>
		</g>
	</g>
</g><g>
	<g>
		<path d="M417.777,213.597c-6.33-5.343-15.802-4.504-21.138,1.831l-9.69,11.466l22.991,19.29l9.727-11.508    C424.957,228.346,424.115,218.878,417.777,213.597z" data-original="#000000" class="active-path" data-old_color="#000000" fill="#9AA4B6"/>
	</g>
</g></g> </svg>
