<?xml version="1.0"?>
<svg xmlns="http://www.w3.org/2000/svg" xmlns:xlink="http://www.w3.org/1999/xlink" xmlns:svgjs="http://svgjs.com/svgjs" version="1.1" width="512" height="512" x="0" y="0" viewBox="0 0 510 510" style="enable-background:new 0 0 512 512" xml:space="preserve" class=""><g><g xmlns="http://www.w3.org/2000/svg"><path d="m455 0h-400c-8.284 0-15 6.716-15 15v480c0 8.284 6.716 15 15 15h400c8.284 0 15-6.716 15-15v-480c0-8.284-6.716-15-15-15zm-15 480h-370v-450h370z" fill="#6c757d" data-original="#000000" style="" class=""/><path d="m127 446c8.284 0 15-6.716 15-15v-352c0-8.284-6.716-15-15-15s-15 6.716-15 15v352c0 8.284 6.716 15 15 15z" fill="#6c757d" data-original="#000000" style="" class=""/><path d="m178.897 150.165c-4.137 5.658-2.897-1.269-2.897 136.835 0 8.284 6.716 15 15 15h200c8.284 0 15-6.716 15-15v-128c0-8.284-6.716-15-15-15h-125.001l122.77-51.154c7.647-3.186 11.263-11.968 8.077-19.615-3.187-7.646-11.97-11.265-19.615-8.076-205.592 85.662-194.762 80.108-198.334 85.01zm91.103 57.835v-34h42v34zm-30 0h-34v-34h34zm-34 64v-34h170v34zm170-64h-34v-34h34z" fill="#6c757d" data-original="#000000" style="" class=""/><path d="m391 336h-200c-8.284 0-15 6.716-15 15s6.716 15 15 15h200c8.284 0 15-6.716 15-15s-6.716-15-15-15z" fill="#6c757d" data-original="#000000" style="" class=""/><path d="m359 400h-144c-8.284 0-15 6.716-15 15s6.716 15 15 15h144c8.284 0 15-6.716 15-15s-6.716-15-15-15z" fill="#6c757d" data-original="#000000" style="" class=""/></g></g></svg>
