<svg id="Capa_1" data-name="Capa 1" xmlns="http://www.w3.org/2000/svg" viewBox="0 0 511.91 344.1"><defs><style>.cls-1{fill:#ffb023;}.cls-2{fill:#2baebf;}</style></defs><title>stairs</title><polygon class="cls-1" points="166.28 189.46 21.71 323.87 0 344.02 64.06 344.1 80.35 323.94 188.75 189.46 166.28 189.46"/><polygon class="cls-2" points="205.49 189.46 124.15 323.87 111.92 344.02 176.02 344.1 182.82 323.94 227.96 189.46 205.49 189.46"/><polygon class="cls-1" points="244.7 189.46 226.59 323.87 223.84 344.02 287.98 344.1 285.29 323.94 267.16 189.46 244.7 189.46"/><polygon class="cls-2" points="283.91 189.46 329.03 323.87 335.77 344.02 399.94 344.1 387.76 323.94 306.37 189.46 283.91 189.46"/><polygon class="cls-2" points="323.11 189.46 431.47 323.87 447.69 344.02 511.91 344.1 490.24 323.94 345.58 189.46 323.11 189.46"/><rect class="cls-1" x="166.29" y="144.95" width="22.46" height="44.51"/><rect class="cls-2" x="205.49" y="119.32" width="22.46" height="70.14"/><rect class="cls-1" x="244.7" y="91.03" width="22.46" height="98.44"/><rect class="cls-2" x="283.91" y="62.2" width="22.46" height="127.26"/><rect class="cls-2" x="323.11" y="32.83" width="22.46" height="156.63"/><polygon class="cls-1" points="176.07 120.92 149.7 157.74 202.44 157.74 176.07 120.92"/><polygon class="cls-2" points="216.91 89.69 190.54 126.51 243.28 126.51 216.91 89.69"/><polygon class="cls-1" points="255.35 59.26 228.98 96.08 281.72 96.08 255.35 59.26"/><polygon class="cls-2" points="295.13 30.43 268.75 67.25 321.5 67.25 295.13 30.43"/><polygon class="cls-2" points="333.83 0 307.46 36.82 360.2 36.82 333.83 0"/></svg>