<?xml version="1.0"?>
<svg xmlns="http://www.w3.org/2000/svg" id="Capa_1" enable-background="new 0 0 512 512" height="512px" viewBox="0 0 512 512" width="512px" class=""><g><g><path d="m65 346v-132c0-7.814 2.144-13.539 1.858-12.776-1.296.101-2.582.24-3.858.416v-97.64c0-8.284-6.716-15-15-15s-15 6.716-15 15v109.646c-19.836 14.084-33 38.556-33 66.354 0 41.662 29.55 75.871 66.858 78.776.161.429-1.858-5.257-1.858-12.776z" data-original="#000000" class="active-path" data-old_color="#000000" fill="#2B4065"/><path d="m288 393h-64c-20.671 0-38.255 13.42-44.531 32h-3.469c-21.787 0-40.285-14.298-46.636-34-20.873 0-23.839.419-31.202-1.592 6.389 37.194 38.849 65.592 77.838 65.592h3.469c6.276 18.58 23.86 32 44.531 32h64c25.916 0 47-21.084 47-47s-21.084-47-47-47z" data-original="#000000" class="active-path" data-old_color="#000000" fill="#2B4065"/><path d="m128.815 169c10.313-65.064 63.56-114 127.185-114s116.872 48.936 127.185 114c20.341 0 23.264-.402 30.51 1.551-10.045-82.583-77.105-145.551-157.695-145.551s-147.65 62.968-157.695 145.551c7.225-1.947 10.172-1.551 30.51-1.551z" data-original="#000000" class="active-path" data-old_color="#000000" fill="#2B4065"/><path d="m402 199h-33.976c-8.271 0-15 6.729-15 15v132c0 8.271 6.729 15 15 15h33.976c8.271 0 15-6.729 15-15v-132c0-8.271-6.729-15-15-15z" data-original="#000000" class="active-path" data-old_color="#000000" fill="#2B4065"/><path d="m110 361h34c8.271 0 15-6.729 15-15v-132c0-8.271-6.729-15-15-15h-34c-8.271 0-15 6.729-15 15v132c0 8.271 6.729 15 15 15z" data-original="#000000" class="active-path" data-old_color="#000000" fill="#2B4065"/><path d="m445.142 201.224c-.026-.103 1.858 5.509 1.858 12.776v132c0 7.829-2.084 13.227-1.858 12.776 37.308-2.905 66.858-37.114 66.858-78.776s-29.55-75.871-66.858-78.776z" data-original="#000000" class="active-path" data-old_color="#000000" fill="#2B4065"/></g></g> </svg>
