<svg id="Layer_1" data-name="Layer 1" xmlns="http://www.w3.org/2000/svg" viewBox="0 0 11036.27 2929.14"><defs><style>.cls-1{fill:#006e5e;}.cls-2{fill:#ffa000;}</style></defs><title>zhinma SVG</title><path class="cls-1" d="M2773.49,5583.89c-229,0-261.25,138.69-261.25,238.67,0,87.08,12.9,174.17,25.81,261.25s25.8,177.39,25.8,264.47c0,325.75-203.19,441.86-467.67,441.86h-67.73V6612.75h54.83c180.62-3.22,258-100,258-280.59,0-77.41-12.9-151.59-22.57-232.22-12.9-77.41-25.81-158-25.81-245.12,0-206.42,90.31-316.08,232.22-351.56v-6.45c-141.91-38.7-232.22-141.91-232.22-348.33,0-87.08,12.91-164.49,25.81-245.12,9.67-77.41,22.57-154.81,22.57-229,0-174.17-67.73-274.15-254.79-277.38h-58.06V4219.6H2093c274.15,0,470.89,125.79,470.89,422.51,0,90.31-12.9,177.39-25.8,267.7s-25.81,180.62-25.81,270.92c0,112.89,32.26,238.67,261.25,238.67Z" transform="translate(-71.73 -3861)"/><path class="cls-1" d="M71.73,5418.5c229,0,261.25-125.79,261.25-238.67,0-90.31-12.91-180.62-25.81-270.93s-25.8-177.39-25.8-267.69c0-296.73,193.52-422.52,467.67-422.52h67.73v177.39H758.71c-190.29,0-254.79,103.21-254.79,277.38,0,74.18,9.67,151.59,22.57,229,12.9,80.63,22.58,158,22.58,245.12C552.29,5354,462,5457.2,316.85,5495.9v6.45c145.14,35.48,235.44,145.14,232.22,351.56,0,87.08-9.68,167.71-22.58,245.12-12.9,80.63-22.57,154.81-22.57,232.22,0,180.61,74.18,280.6,254.79,280.6h58.06v177.39H749c-267.7,0-467.67-116.11-467.67-441.87,0-87.08,12.9-177.39,25.8-264.47S333,5908.74,333,5821.66c0-100-32.26-238.67-261.25-238.67Z" transform="translate(-71.73 -3861)"/><path class="cls-1" d="M4144.09,6339.31v299.31h-521.2l-498-500.56,691.5-1496.53h-787v-299.3h523.78l498,500.55-691.5,1496.53Z" transform="translate(-71.73 -3861)"/><path class="cls-1" d="M5005.08,5152.41,5300,5446.56H4874.29V6638.62H4577.57V4486.72h296.72v665.69Zm297.53,1486.21h296.72V5745.86l-296.72-296.72Z" transform="translate(-71.73 -3861)"/><path class="cls-2" d="M6283.07,4995,5986.34,4698.3h296.73Zm0,157.39-296.73,294.15V6638.62l296.73-296.73Z" transform="translate(-71.73 -3861)"/><path class="cls-1" d="M6662.32,5745.86,6959,5449.14V6638.62H6662.32Zm1021.77-593.45V6638.62H7387.36V5446.56H6961.62l296.73-294.15h425.74Z" transform="translate(-71.73 -3861)"/><path class="cls-1" d="M8068.53,5745.86l296.73-296.72V6638.62H8068.53Zm1746.81-593.45V6638.62H9518.61V5446.56H9090.3V6638.62H8793.57V5446.56H8367.84L8662,5152.41h131.59v294.15l296.73-294.15h725Z" transform="translate(-71.73 -3861)"/><path class="cls-1" d="M10514.55,5152.41l294.15,294.15h-606.36V5152.41Zm296.72,590.88h-608.93v895.33H11108V5745.86l-296.73-296.72Zm0,596h-312.2V6042.59h312.2Z" transform="translate(-71.73 -3861)"/><circle class="cls-2" cx="875.95" cy="1102.71" r="174.16"/><rect class="cls-2" x="882.4" y="2354.11" width="993.38" height="135.46"/><path class="cls-1" d="M1734.65,3880c67,66-245,522.28-245.12,522.49-.5-.27-215.06-67.66-238.67-154.81C1211.87,4103.8,1668.75,3815.07,1734.65,3880Z" transform="translate(-71.73 -3861)"/><path class="cls-1" d="M1493.23,4416.17l-7.76-4.81c-37.27-12.22-221-76.45-244-161.13-26.79-98.91,151.64-244.7,278.12-318.56,41.42-24.2,179.83-99.89,221.8-58.55h0c11.52,11.36,46.58,45.92-92.29,291.46-66.46,117.5-142.86,230.48-151.36,243Zm211.35-535.85c-32,0-91.7,19.31-175.18,68.06C1381,4035,1239.76,4169.74,1260.19,4245.16c19.5,72,186.54,132.61,225.45,145.85,150.55-222.36,281.36-465.52,242.21-504.1h0C1723.54,3882.66,1715.73,3880.32,1704.58,3880.32Z" transform="translate(-71.73 -3861)"/><circle class="cls-2" cx="1875.79" cy="1115.61" r="174.16"/></svg>